<svg id="Layer_1" data-name="Layer 1" xmlns="http://www.w3.org/2000/svg" viewBox="0 0 1400 1400"><path d="M289.73,1051.88a58.5,58.5,0,0,0-39.46,15.23l-50.5-27.87a20,20,0,0,0-19.33,35l51.14,28.22a58.71,58.71,0,1,0,58.15-50.61Zm0,77.43a18.72,18.72,0,1,1,18.72-18.72A18.74,18.74,0,0,1,289.73,1129.31Z"/><path d="M576.15,1133.84l.39-.06q.77-10.61.78-21.34c0-6.14-.21-12.24-.59-18.31l-.39-.06a285,285,0,0,0-27.53-105.6l.32-.24a285.26,285.26,0,0,0-19.65-34.52l-.39.16a288.17,288.17,0,0,0-79-79.4c0-.13.08-.27.13-.41a285.17,285.17,0,0,0-33.9-19.53l-.28.3A284.9,284.9,0,0,0,310,826.5c0-.13-.06-.26-.09-.39-6.49-.43-13-.67-19.57-.67s-13.08.24-19.57.67c0,.13-.07.26-.09.39A284.91,284.91,0,0,0,164.9,854.65l-.28-.29a285.24,285.24,0,0,0-33.85,19.46c0,.14.07.27.12.41a288.16,288.16,0,0,0-79.24,79.48l-.39-.15A285.29,285.29,0,0,0,31.62,988l.31.25A285,285,0,0,0,4.3,1094.13l-.39.07c-.38,6-.59,12.13-.59,18.24q0,10.7.77,21.27l.39.07a284.86,284.86,0,0,0,28.34,104.66l-.17.1-.16.1a285.16,285.16,0,0,0,20,34.6l.12-.06.24-.14a286.68,286.68,0,0,0,475-.18l.35.2a285.18,285.18,0,0,0,20-34.63l-.34-.19A284.86,284.86,0,0,0,576.15,1133.84Zm-70.75.1H536a244.09,244.09,0,0,1-18.43,74.48q-2.09,4.94-4.39,9.77l-24.3-14a20,20,0,1,0-20,34.64l24.26,14a247.93,247.93,0,0,1-106.84,86.89,246.38,246.38,0,0,1-270.37-52.87A248,248,0,0,1,87.63,1253l24.57-14.19a20,20,0,1,0-20-34.64l-24.65,14.23q-2.34-4.93-4.49-10a244.09,244.09,0,0,1-18.43-74.48h31a20,20,0,0,0,0-40H44.38a244.18,244.18,0,0,1,18.69-77.48c1.15-2.71,2.35-5.39,3.59-8l26.52,15.31a20,20,0,0,0,20-34.64L86.42,973.63a248.7,248.7,0,0,1,64.2-64.47l16.26,28.16a20,20,0,1,0,34.64-20L185.3,889.23c3-1.4,6-2.76,9-4.05a244.14,244.14,0,0,1,76-18.56v32.24a20,20,0,0,0,40,0V866.62a244.14,244.14,0,0,1,76,18.56c3.17,1.34,6.29,2.75,9.38,4.22l-16.12,27.93a20,20,0,1,0,34.64,20l16.13-27.94a248.73,248.73,0,0,1,64,64.44l-26.44,15.26a20,20,0,1,0,20,34.64l26.17-15.11c1.2,2.59,2.38,5.2,3.5,7.84a244.18,244.18,0,0,1,18.69,77.48H505.4a20,20,0,0,0,0,40Z"/><path d="M772.1,45.07a642.24,642.24,0,0,1,73,10.45,20,20,0,0,0,8-39.19q-9.18-1.86-18.44-3.48h0l-.26,0h0l-1.54-.27h0l-.22,0h-.06l-.2,0h-.08l-.2,0H832l-.21,0h0l-.47-.08h0l-.18,0-.1,0-.17,0-.11,0-.16,0-.12,0-.15,0-.14,0-.14,0-.14,0-.14,0-.18,0-.11,0-.26,0-.11,0-.18,0-.11,0-.17,0-.12,0-.17,0-.11,0-.18,0-.11,0-.2,0h-.08l-.58-.09h0l-.24,0h-.09l-.2,0h-.08l-.21,0h-.08l-.23,0h-.06l-.26,0h0l-.89-.14h0l-.24,0h-.07l-.23,0h0l-.26,0h0l-1.19-.19h0l-.28,0h0l-.28,0h0l-1.8-.28h0l-4.23-.63h0L809.76,9h0l-.29,0h0l-1.8-.24h0l-.26,0h0l-.28,0h0l-1.21-.16h0l-.27,0h0l-.24,0h-.06l-.23,0h-.06l-.28,0h0L804,8.24h0l-.29,0h0l-.25,0h-.06l-.23,0H803l-.23,0h-.06l-.23,0h-.06L801.86,8h-.08l-.21,0h-.11l-.17,0-.14,0-.15,0-.14,0-.15,0-.13,0-.15,0-.14,0h-.1l-.35,0h-.1l-.15,0-.13,0-.16,0h-.12l-.17,0h-.1l-.19,0h-.07l-.21,0h-.06l-1-.12h0l-.23,0h0l-.23,0h0l-.24,0h0c-7-.81-14.06-1.52-21.12-2.12q-.83-.07-1.65-.07a20,20,0,0,0-1.67,39.93Z"/><path d="M888.06,65.82a637.32,637.32,0,0,1,69.76,23.72,20,20,0,1,0,15-37.06A674.89,674.89,0,0,0,902,28.17h0l-.27-.08h0L901.4,28h0l-.26-.07h0l-.57-.16-.06,0-.22-.06-.08,0-.19-.05-.11,0-.18,0-.1,0-.18,0-.11,0-.2-.05-.24-.07-.09,0-.06,0a20,20,0,0,0-10.64,38.56Z"/><path d="M641.17,47.07a20.23,20.23,0,0,0,2.3-.13,650.13,650.13,0,0,1,73.66-4.19c3.58,0,7.2,0,10.77.09h.34a20,20,0,0,0,.32-40q-4.8-.08-9.62-.09h-26l-.68,0h-1.51l-1,0h-1.45l-1,0h-1.39l-1.08,0h-1.11l-1.34.07h-.84l-1.88.1h-.27Q659,4.9,638.85,7.2a20,20,0,0,0,2.32,39.86Z"/><path d="M998.18,107.58a641.57,641.57,0,0,1,64.22,36.18A20,20,0,1,0,1084,110.09q-4-2.55-8-5.05h0l-.23-.14,0,0-.5-.31h0l-.23-.15-.06,0-.18-.11-.09-.05-.16-.1-.09-.05-.16-.1-.08,0-.23-.14-.11-.07-.13-.08-.14-.08-.1-.06-.13-.08-.11-.07-.14-.08-.09-.05-.15-.09h0l-.42-.26h0l-.2-.12,0,0-.19-.12,0,0-.2-.12h0q-27.22-16.66-56-30.78a20,20,0,0,0-17.54,35.95Z"/><path d="M1098.79,168.92a646.09,646.09,0,0,1,56.55,47.33,20,20,0,0,0,27.41-29.13q-22.81-21.43-47.52-40.72h0l-1.2-.94h0l-.18-.14,0,0-.76-.59,0,0-.17-.13,0,0-.17-.13,0,0-.75-.58-.06,0-.15-.12-.07-.05-.15-.12-.06,0-.52-.4,0,0-.14-.11-.08-.06-.14-.11-.08-.06-.13-.1-.08-.06-.14-.11,0,0-.32-.24-.05,0-.14-.1-.09-.07-.12-.09-.11-.08-.11-.08-.13-.1-.1-.08-.13-.1-.17-.13-.13-.1-.09-.07-.13-.1-.1-.08-.13-.1-.09-.07-.14-.11-.09-.06-.44-.34-.08-.06-.15-.12-.08-.06-.14-.11-.09-.07-.16-.12-.07-.05-.46-.34-.06,0-.17-.13-.07-.05-.17-.12-.06,0-.19-.14,0,0-.47-.35,0,0-.2-.15,0,0-.21-.16,0,0-.72-.54h0l-.23-.17,0,0-.21-.16,0,0-.22-.17h0a20,20,0,0,0-23.87,32.09Z"/><path d="M522.28,72a20,20,0,0,0,5.9-.89,638,638,0,0,1,71.55-17.6,20,20,0,1,0-7.29-39.33l-.3.06h0l-1.2.22h0l-.26,0h-.05l-.23,0h-.07l-.21,0-.09,0-.22,0h-.07l-.57.11-.1,0-.18,0-.12,0-.17,0-.12,0-.17,0-.12,0L588,15l-.14,0-.11,0-.36.07h-.07l-.19,0-.08,0-.19,0-.09,0-.19,0-.08,0-.19,0-.08,0-1,.19h0l-.24,0h0l-.23,0h0l-.24,0h0Q566,19.33,547.92,24h0l-.24.06h0l-1.25.32h0l-.22.06h0l-.22.06h0l-1.23.32h0l-.22.06h-.05l-.2.05-.08,0-.19,0-.08,0-.19,0h0l-.4.11-.07,0-.17,0-.1,0-.17,0-.11,0-.16,0-.11,0-.16,0-.12,0-.15,0-.12,0-.27.07-.13,0-.14,0-.14,0-.14,0-.13,0-.13,0-.15,0-.13,0-.14,0-.13,0-.15,0-.19.05-.2.05-.1,0-.18,0-.1,0-.18,0-.1,0-.17,0-.11,0-.18,0-.09,0-.25.07h0l-.29.08h0l-.24.06-.09,0-.19.05-.08,0-.21.06-.08,0-.21.06-.07,0-.25.07h0l-.57.16-.06,0-.22.06-.07,0-.22.06-.06,0-.24.07h0l-1.16.32h0l-.27.08h0l-1.75.49h0q-7.62,2.16-15.17,4.49A20,20,0,0,0,522.28,72Z"/><path d="M1258.42,341a641.27,641.27,0,0,1,35.77,64.45,20,20,0,0,0,36-17.36h0l-.53-1.09h0a679,679,0,0,0-37.47-67.38,20,20,0,1,0-33.8,21.39Z"/><path d="M1323.15,420a20,20,0,0,0-11.17,26,637.4,637.4,0,0,1,23.27,69.91,20,20,0,1,0,38.62-10.41q-.44-1.63-.89-3.27h0l-.07-.27v0l-.07-.25v0l-.07-.26v0l-.16-.58v0l-.07-.26,0-.06-.06-.22,0-.07-.06-.22,0-.06-.06-.22,0-.07-.15-.55,0-.1-.05-.18,0-.11,0-.16,0-.13,0-.15,0-.13,0-.15,0-.12-.06-.22,0-.17,0-.14,0-.15,0-.13,0-.14,0-.13,0-.16,0-.1,0-.17,0-.06-.19-.66v0l-.06-.2,0-.07-.06-.2,0-.06-.06-.2v-.05l-.35-1.22h0l-.07-.24v0q-6.64-22.9-14.81-45.08v0l-.08-.22v0l-.36-1h0l-.08-.2,0-.06-.07-.19,0-.07-.07-.18,0-.08-.07-.18,0,0-.14-.37,0-.08-.05-.14-.05-.13-.05-.13,0-.12-.05-.14,0-.13,0-.13-.06-.15,0-.11-.2-.53,0-.08-.07-.19,0-.08-.08-.2,0-.08-.08-.21,0-.06-.09-.25v0l-.32-.85h0l-.11-.28h0q-1.95-5.13-4-10.22a20,20,0,0,0-26-11.17Z"/><path d="M1186.52,247.63a646.06,646.06,0,0,1,47,56.84,20,20,0,1,0,32.24-23.67q-4.63-6.3-9.39-12.49h0l-.18-.24h0l-.74-1,0,0-.17-.22h0l-.56-.72h0l-.17-.22,0,0-.16-.21,0,0-.55-.71,0,0-.16-.21,0,0-.17-.21v0l-.56-.71,0,0-.16-.2,0,0-.15-.19,0,0-.55-.7,0,0-.16-.2,0,0-.15-.19,0,0-.17-.22v0l-.36-.46,0-.06-.13-.17-.05-.06-.13-.17,0-.06-.16-.2,0,0-.18-.23,0,0-.15-.19,0-.06-.13-.16-.06-.07-.13-.16-.06-.07-.13-.16-.06-.07-.18-.22,0,0-.15-.18-.06-.07-.12-.15-.07-.08-.11-.13-.07-.09-.12-.15-.05-.06-.18-.22-.06-.07-.12-.15-.08-.1-.09-.11-.09-.11-.09-.11-.09-.11-.09-.11-.08-.1-.17-.21-.06-.07-.12-.15-.08-.1-.1-.12-.08-.1-.1-.12-.09-.11-.09-.11-.09-.11-.08-.09-.18-.22-.09-.11-.08-.1-.09-.11-.09-.11-.09-.11-.09-.12-.07-.08-.38-.47-.07-.08-.11-.13L1245,254l-.11-.13-.06-.08-.11-.14-.06-.07-.12-.14h0l-.28-.35,0-.05-.12-.15-.05-.07-.12-.14-.06-.07-.12-.14,0-.06-.43-.53,0,0-.14-.17,0,0-.13-.16,0,0-.13-.16,0,0-.45-.54,0,0-.13-.16,0-.05-.12-.15-.05-.06-.13-.15,0,0-.62-.75,0,0-.15-.18,0,0-.8-1h0l-.15-.18,0,0-.8-1h0l-.16-.19v0l-1-1.16v0l-.81-1h0l-.16-.19h0q-10.33-12.23-21.21-24a20,20,0,0,0-29.3,27.23Z"/><path d="M1370.84,777.41a20,20,0,0,0-23.14,16.27,638.24,638.24,0,0,1-16.84,71.74,20,20,0,0,0,38.33,11.44,675.31,675.31,0,0,0,17.92-76.33A20,20,0,0,0,1370.84,777.41Z"/><path d="M1397.25,682.62V682c0-2,0-4,0-6v-.29a20,20,0,0,0-20-19.79H1377a20,20,0,0,0-19.79,20.2c0,2.23,0,4.49,0,6.72a650.77,650.77,0,0,1-3.46,67,20,20,0,0,0,39.78,4.2q3.14-30.16,3.61-61h0V682.62Z"/><path d="M906.67,1295.39a20,20,0,0,0-5.74.84,638.19,638.19,0,0,1-71.7,17,20,20,0,1,0,6.92,39.4q5.4-1,10.77-2h0l1.55-.3h0l.24,0h0l.23,0h0l1-.19h.07l.2,0h.07l.2,0,.07,0,.2,0,.08,0,.19,0,.08,0,.63-.13.1,0,.16,0,.12,0,.15,0,.14,0,.14,0,.14,0,.14,0,.15,0,.13,0,.27-.05.09,0,.19,0,.11,0,.17,0,.11,0,.17,0,.12,0,.17,0,.11,0,.18,0,.1,0,.28-.06h0l.23,0,.11,0,.18,0,.1,0,.19,0,.09,0,.2,0,.08,0,.22,0h.07l.58-.12h0l.24-.05h.07l.22,0,.07,0,.23,0h0l.27-.06h0l.89-.19h0l.27-.06h0l.26-.06h0l.29-.06h0l1.19-.26h0l.29-.06h0q25.64-5.56,50.54-13a20,20,0,0,0-5.72-39.17Z"/><path d="M787.57,1319.29a20.29,20.29,0,0,0-2.13.11,650.56,650.56,0,0,1-68.31,3.6l-5.39,0h-.17a20,20,0,0,0-.16,40l3.91,0h14.43l.85,0H736l1.7,0h4l5.11-.2h0q21.59-.93,42.82-3.18a20,20,0,0,0-2.08-39.89Z"/><path d="M667.51,1321.11a642.7,642.7,0,0,1-73.06-9.84,20,20,0,0,0-7.62,39.27q8.63,1.67,17.34,3.13h0l.29,0h0l.28,0h0l1.18.19H606l.23,0h.06l.22,0h.08l.22,0h.07l.24,0h.05l.58.09h.06l.22,0,.1,0,.18,0,.12,0,.17,0,.11,0,.18,0,.11,0,.19,0h.09l.2,0,.15,0,.21,0,.13,0,.15,0,.15,0,.14,0,.16,0,.11,0,.18,0,.1,0,.18,0,.1,0,.18,0h.08l.66.1h.07l.19,0,.1,0,.19,0h.08l.19,0h.08l.2,0h.06l.21,0h0l.76.12h0l.23,0h.05l.22,0h.05l.22,0h0l.23,0h0l1.3.19h0l.24,0h0l.24,0h0c6.17.91,12.34,1.73,18.56,2.47h0l.27,0h0l1.84.22h0l.23,0h0l.23,0h0l.24,0h0l1.06.12h0l.23,0h.06l.21,0h.06l.21,0h.07l.21,0h.05l.75.08h0l.2,0H642l.19,0h.09l.19,0h.1l.18,0h.11l.17,0h.11l.17,0h.09l.39,0h.07l.18,0h.11l.17,0h.12l.17,0h.11l.17,0H645l.17,0h.14l.14,0,.2,0,.17,0,.19,0h.12l.17,0h.11l.18,0h.11l.19,0h.1l.2,0h.1l.27,0h0l.61.06h0l.26,0h.07l.23,0h.07l.23,0h.07l.24,0h.05l1.2.12h0l.28,0h0l.28,0h0q6.59.63,13.22,1.14.78.06,1.55.06a20,20,0,0,0,1.51-39.94Z"/><path d="M551.37,1301.34c-3.85-1-7.7-2.11-11.55-3.22a312.72,312.72,0,0,1-28.56,33.17l.06,0,.13,0,.15,0,.11,0,.15,0,.11,0,.36.11.05,0,.18.06.08,0,.17.05.11,0,.16,0,.1,0,.16.05.11,0,.16.05.07,0,.36.11.09,0,.16,0,.11,0,.16,0,.11,0,.15,0,.12,0,.16,0,.09,0,.18.05h0l.42.13.09,0,.18.06.08,0,.18.06.09,0,.18.06.07,0,.19.06.05,0,.69.21h0l.2.06.07,0,.19.06.07,0,.19.06.07,0,.2.06h0l.67.2.07,0,.19.06.07,0,.19.06.08,0,.19.06.06,0,.71.21h0l.2.06.07,0,.19.06.08,0,.19.06.07,0,.19.06.07,0,.66.2h0l.17.05.11,0,.16,0,.1,0,.17,0,.1,0,.17.05.08,0,.63.19.07,0,.18.05.1,0,.16,0,.11,0,.16,0,.09,0,.18.05.08,0,.33.1.11,0,.15,0,.12,0,.15,0,.13,0,.14,0,.13,0,.13,0,.17,0,.1,0,.24.07.05,0,.26.08.08,0,.2.06.1,0,.18.05.1,0,.2.06.08,0,.26.07h0l.58.17h0l.26.07h0l.25.07h0l.26.07h0l1.16.33h0q4.73,1.34,9.49,2.61a20,20,0,1,0,10.33-38.64Z"/><path d="M1019.3,1249.93a19.92,19.92,0,0,0-9.15,2.23,638.93,638.93,0,0,1-67.34,29.94,20,20,0,0,0,14,37.46,676.18,676.18,0,0,0,71.69-31.87,20,20,0,0,0-9.23-37.75Z"/><path d="M1292.93,1006.57a20,20,0,0,0-27.46,6.78,644.16,644.16,0,0,1-41.68,60.81,20,20,0,1,0,31.64,24.47q17-22,32.23-45.38h0l.16-.25h0l.16-.25h0l.49-.76,0,0,.14-.21,0-.05.14-.22,0,0,.32-.5,0-.05.12-.18.06-.09.1-.16.05-.08.11-.17,0-.08.13-.2,0,0,.15-.24,0-.07.11-.18.05-.08.1-.15.07-.11.08-.13.08-.12.07-.11.22-.34h0l.09-.14.06-.09.09-.14.06-.09.09-.14.05-.08.1-.16,0,0,.39-.61h0l.13-.21h0l.13-.21h0c2.62-4.13,5.18-8.27,7.71-12.46A20,20,0,0,0,1292.93,1006.57Z"/><path d="M1342.55,895.61a20,20,0,0,0-25.74,11.72,638.76,638.76,0,0,1-29.8,67.4A20,20,0,1,0,1322.6,993a676.32,676.32,0,0,0,31.67-71.63A20,20,0,0,0,1342.55,895.61Z"/><path d="M1223.76,1106.55a20,20,0,0,0-28.24,1.65,646.9,646.9,0,0,1-52.09,52.2,20,20,0,0,0,26.63,29.84q22.35-20,42.88-41.83h0l.17-.18v0l.16-.17h0l.67-.71,0,0,.14-.15.05-.05.13-.14.06-.06.13-.14,0,0,.26-.27.07-.08.09-.1.1-.11.09-.1.1-.11.09-.09.11-.12.09-.1.38-.41.06-.07.14-.15.06-.06.14-.15.05-.06.17-.19,0,0,.61-.66,0,0,.19-.2h0q4-4.39,8-8.85A20,20,0,0,0,1223.76,1106.55Z"/><path d="M1121.7,1184.52a19.91,19.91,0,0,0-12.25,4.21,644.14,644.14,0,0,1-60.73,41.81,20,20,0,0,0,20.7,34.23,681.53,681.53,0,0,0,64.59-44.47,20,20,0,0,0-12.31-35.77Z"/><path d="M62.65,593.83a20,20,0,0,0,23-16.46,638.49,638.49,0,0,1,16.24-71.88,20,20,0,1,0-38.44-11.06,675.76,675.76,0,0,0-16.8,73.65v0l0,.26v.05l0,.26v0l0,.29h0l-.1.59v.08l0,.2,0,.1,0,.18,0,.12,0,.16,0,.13,0,.16,0,.11A20,20,0,0,0,62.65,593.83Z"/><path d="M89.94,475.4a20,20,0,0,0,25.64-11.93,638.61,638.61,0,0,1,29.23-67.65,20,20,0,1,0-35.74-18q-8.35,16.61-15.8,33.72v0l-.11.26v0l-.12.27h0l-.24.56h0l-.11.26,0,0-.09.22,0,.06-.09.22,0,.05-.35.82v0l-.11.25,0,0-.1.23,0,0-.11.26h0l-.24.56v0l-.1.24,0,.05-.1.23,0,0-.1.23,0,0-.34.81,0,.06-.09.2,0,.07-.09.21,0,.05-.1.23,0,0-.23.54,0,.06-.09.21,0,.08-.08.18,0,.09-.08.18,0,.09-.09.22,0,0-.11.27,0,.05-.09.21,0,.09-.07.17,0,.1-.07.16,0,.11-.07.17,0,.09-.11.26,0,0-.09.22,0,.11-.06.15-.06.14-.05.13-.06.13-.05.13-.05.13-.06.15-.07.17-.08.18-.05.13-.06.13-.05.12-.06.14-.05.13-.05.13-.06.13,0,.12-.06.15,0,.06-.14.34,0,.1-.06.16,0,.11-.06.15,0,.1-.06.15,0,.12-.06.15,0,.09-.24.59,0,.07-.08.19,0,.07-.07.18,0,.08-.07.18,0,.06-.27.66v0l-.08.2,0,0-.08.2,0,.06-.08.2v0l-.38.93h0l-.09.22v0l-.09.23h0Q81.55,440,78,449.8A20,20,0,0,0,89.94,475.4Z"/><path d="M1361,535.43a20,20,0,0,0-15.78,23.48,642.58,642.58,0,0,1,10,73,20,20,0,0,0,19.92,18.43c.53,0,1.06,0,1.59-.06a20,20,0,0,0,18.37-21.48c-.23-2.94-.48-5.86-.75-8.79h0l0-.26h0l-.15-1.6h0l0-.25v0l0-.25v0l-.13-1.32h0l0-.24v0l0-.23v-.06l0-.22v-.05l-.1-1h0l0-.24v0l0-.22v-.06l0-.21v-.08l0-.2v-.1l0-.19V613l-.08-.74v0l0-.22V612l0-.2v-.08l0-.2v-.08l0-.2v-.09l0-.2v0l-.08-.75v0l0-.21v-.07l0-.21v-.08l0-.2v-.08l0-.2V609l0-.2v-.05l-.08-.71V608l0-.19v-.09l0-.18v-.1l0-.18v-.1l0-.18v-.1l0-.19v-.08l-.07-.65v-.1l0-.18v-.1l0-.18v-.11l0-.17V605l0-.17v-.12l0-.17v-.09l-.07-.63v-.11l0-.16v-.12l0-.17v-.11l0-.17v-.11l0-.17v-.12l0-.17v-.08l-.08-.67v-.07l0-.19v-.09l0-.18V601l0-.17v-.11l0-.18v-.1l0-.18v-.06l-.09-.71v0l0-.21v-.07l0-.2v-.09l0-.19v-.09l0-.18v-.1l0-.19v0l-.09-.69v-.07l0-.2V597l0-.19v-.1l0-.18v-.11l0-.17v-.11l0-.18v-.05l-.09-.7v-.06l0-.2v-.08l0-.2v-.08l0-.2v-.07l0-.2v-.08l-.12-.95V593l0-.19v-.09l0-.19v-.09l0-.2v-.08l0-.2v-.08l0-.21h0l-.1-.77v0l0-.23v0l0-.22v-.06l0-.21v-.06l0-.22v0l-.14-1v0l0-.22v-.06l0-.21v-.08l0-.19V588l0-.19v-.08l-.13-1v-.05l0-.21v-.07l0-.21v-.07l0-.21v-.06l0-.21v-.05l-.14-1v0l0-.23v0l0-.21V584l0-.2v-.07l0-.21v-.06l-.14-1v0l0-.22v-.06l0-.21v-.07l0-.21v-.06l0-.21v-.06l-.15-1v0l0-.23v0l0-.22v-.06l0-.21v-.07l0-.21v-.07l-.15-1v-.05l0-.21V578l0-.21v-.07l0-.21v-.06l0-.21v-.06l-.15-1v0l0-.23v0l0-.22v-.06l0-.22v0l0-.23v0l-.16-1v0l0-.22v-.05l0-.21v-.07l0-.21v-.05l0-.22v-.05l-.16-1v-.07l0-.21v-.06l0-.21v-.07l0-.2v-.07l0-.2v-.06l-.16-1v-.06l0-.2v-.07l0-.19v-.08l0-.19V569l0-.19v-.09l-.16-.92v-.08l0-.19v-.08l0-.19,0-.09,0-.18,0-.1,0-.18,0-.11,0-.17v-.06l-.08-.45v0l0-.19,0-.09,0-.18,0-.1,0-.17,0-.12,0-.17,0-.12,0-.15,0-.13,0-.15,0-.23,0-.14,0-.18,0-.13,0-.16,0-.13,0-.15,0-.13,0-.16,0-.12,0-.18,0-.1,0-.21v-.08l-.05-.28v0l0-.24,0-.09,0-.19,0-.11,0-.17,0-.12,0-.16,0-.13,0-.17,0-.1,0-.21v-.08l-.1-.56v-.08l0-.21v-.07l0-.21,0-.08,0-.21v-.08l0-.22v-.07l0-.26v0l-.11-.58v0l0-.24v-.07l0-.23v-.06l0-.23v-.06l-.05-.27h0l-.22-1.19h0l-.05-.28v0l-.05-.28h0q-.31-1.64-.63-3.27A20,20,0,0,0,1361,535.43Z"/><path d="M138.62,364a20,20,0,0,0,27.4-7,643.87,643.87,0,0,1,41.17-61.16,20,20,0,1,0-31.84-24.21,681.38,681.38,0,0,0-43.74,65A20,20,0,0,0,138.62,364Z"/><path d="M308.18,184.65a19.91,19.91,0,0,0,12.39-4.31A644.44,644.44,0,0,1,380.94,138a20,20,0,1,0-21-34q-13.7,8.47-27,17.56h0l-1.25.86h0l-.24.17h0l-.75.52h0l-.22.15,0,0-.22.15,0,0-.73.51,0,0-.19.13-.07,0-.18.12-.06,0-.21.15,0,0-.48.33-.07,0-.17.12-.08.05-.16.11-.08.05-.18.13-.06,0-.23.16,0,0-.19.13-.07.05-.16.11-.09.06-.15.1-.09.06-.15.11-.08.06-.46.32-.08.06-.15.11-.09.06-.14.1-.09.07-.15.11-.08.06-.22.15-.05,0-.19.13-.08.06-.16.11-.09.06-.15.1-.09.06-.15.11-.08.06-.45.32-.1.07-.13.09-.1.07-.13.09-.1.07-.14.1-.1.07-.14.1-.15.11-.15.11-.1.07-.13.1-.11.08-.12.09-.11.08-.11.08-.12.09-.12.09-.14.1-.18.13-.11.08-.13.09-.11.08-.12.08-.11.08-.13.09-.1.07-.12.09-.27.2,0,0-.14.1-.09.06-.14.1-.09.06-.13.1-.1.07-.12.09-.12.09-.11.08-.2.15-.13.09-.1.08-.12.09-.11.08-.11.08-.12.08-.12.08-.1.07-.18.13-.16.11-.09.07-.14.1-.1.07-.12.09-.11.08-.11.08-.12.09-.11.08-.11.08-.21.16-.11.08-.12.09-.11.08-.11.08-.12.09-.12.09-.11.08-.12.09-.11.08-.21.16-.11.08-.12.09-.11.08L314,135l-.1.08-.13.09-.1.08-.14.11-.08.06-.21.16-.11.08-.13.1-.1.07-.13.09-.1.08-.13.1-.1.07-.13.1-.09.07-.22.16-.07,0-.17.12-.08.06-.14.1-.09.07-.14.1-.09.07-.16.12-.06,0-.23.17,0,0-.21.16,0,0-.18.14-.06,0-.18.14,0,0-.21.15,0,0-.47.35-.05,0-.18.14-.05,0-.19.14,0,0-.22.16h0l-.48.36h0l-.22.16,0,0-.21.15,0,0-.23.17h0l-.73.55h0l-.23.18h0Q301,144.79,295.77,149a20,20,0,0,0,12.41,35.69Z"/><path d="M206.94,263.47a20,20,0,0,0,28.22-1.88A646.74,646.74,0,0,1,286.82,209a20,20,0,1,0-26.9-29.61l-1.13,1h0l-.22.2h0l-.67.61,0,0-.19.18,0,0-.19.17,0,0-.2.18,0,0-.22.2h0l-.2.18-.06.05-.15.14-.07.07-.13.12-.09.08-.14.13-.07.06-.2.18-.09.08-.12.11-.1.09-.1.09-.11.1-.1.09-.11.1-.08.07-.45.42-.06.05-.14.13-.05.05-.14.13-.06.06-.14.13,0,0-.51.48,0,0-.17.16,0,0-.17.16,0,0q-20,18.71-38.51,39v0l-.16.17,0,0-.63.69-.06.06-.12.14-.06.06-.13.14-.05.06-.47.52h0l-.12.14-.07.08-.11.13-.07.07-.12.13-.08.08-.11.12-.07.07-.21.24-.07.08-.1.11-.09.1-.1.11-.09.1-.09.1-.12.13-.07.08-.37.42-.06.07-.14.15-.06.06-.14.15-.06.06-.15.17,0,0-.39.44,0,0-.18.2,0,0-.17.19,0,0-.19.22h0l-.81.91h0l-3.24,3.68A20,20,0,0,0,206.94,263.47Z"/><path d="M410,118.38a19.91,19.91,0,0,0,9.3-2.31,639.13,639.13,0,0,1,67.08-30.5A20,20,0,1,0,472,48.25l-1.6.62h0l-.21.08,0,0-.21.08h0l-.64.25-.08,0-.16.06-.11,0-.15.06-.12,0-.15.06-.11,0-.14.06-.15.06-.18.07-.19.08-.11,0-.16.06-.12,0-.15.06-.11,0-.16.06-.1,0-.19.07-.08,0-.26.1-.06,0-.21.08-.07,0-.2.08-.08,0-.19.07-.08,0-.2.08-.07,0-.55.22,0,0-.24.09,0,0-.22.09-.06,0-.24.1h0l-.83.33-.05,0-.23.09,0,0-.24.1h0l-1.11.45h0l-.26.11h0l-1.13.46h0l-.26.11h0l-1.12.46h0l-.27.11h0l-.27.11h0l-1.13.47h0l-.28.12h0l-.28.12h0l-.85.35h0l-.27.11h0l-.26.11h0l-.84.35h0l-.27.11h0l-.27.11h0l-1.12.47h0l-.27.11h0l-.25.11h0l-.83.35h0l-.25.11,0,0-.23.1,0,0-.25.11h0l-.55.23,0,0-.22.09-.07,0-.2.09-.06,0-.22.1,0,0-.25.11h0l-.27.12,0,0-.22.1-.09,0-.17.07-.1,0-.16.07-.1,0-.19.08-.07,0-.26.11-.05,0-.21.09-.1,0-.16.07-.11,0-.16.07-.11,0-.16.07-.1,0-.18.08-.1,0-.23.1-.12.05-.14.06-.13.06-.13.06-.13.06-.13.06-.13.06-.12.05-.52.23-.11,0-.14.06-.12.05-.15.07-.09,0-.16.07-.09,0-.17.08h0l-.63.28-.07,0-.18.08-.07,0-.17.08-.08,0-.18.08h0l-.69.31h0l-.22.1h0l-.21.1h0q-19.81,8.87-38.9,18.93A20,20,0,0,0,410,118.38Z"/><path d="M103,864.16q-1.34-4.53-2.6-9.08a20,20,0,0,0-38.55,10.67q3.81,13.68,8.19,27.13A312.73,312.73,0,0,1,103,864.16Z"/><path d="M37,683.33v.36c0,.12,0,.24,0,.36v.88q0,.16,0,.33v.46c0,.12,0,.24,0,.36v0q0,.39,0,.78v0q0,.4,0,.79h0q0,3.4.08,6.8v1.22a20,20,0,0,0,20,19.62h.38A20,20,0,0,0,77.11,695c-.07-4-.11-8.08-.11-12.1,0-20.56,1-41.3,2.93-61.64a20,20,0,0,0-18-21.81q-1-.09-1.92-.09a20,20,0,0,0-19.88,18.06c-1.17,12.26-2,24.57-2.53,37h0v.26h0v.26h0v.27h0v.26h0c0,1-.08,2-.11,3h0v1.36c0,.92-.06,1.81-.08,2.72V665h0c0,.46,0,.91,0,1.36v3h0c0,.37,0,.73,0,1.09h0v3.56c0,.18,0,.36,0,.54v3.85c0,.18,0,.34,0,.53v3.86q0,.18,0,.36Z"/><path d="M59.54,720.9q-.87,0-1.76.08a20,20,0,0,0-18.2,21.59,679.29,679.29,0,0,0,11.29,77.65A20,20,0,0,0,90,812.11a642.06,642.06,0,0,1-10.6-72.94A20,20,0,0,0,59.54,720.9Z"/><path d="M409,813A334.13,334.13,0,1,1,587,991c-4.29-1.82-8.53-3.73-12.73-5.72a308.66,308.66,0,0,1,17.57,50.49,373.8,373.8,0,0,0,125.32,21.49c206.8,0,374.44-167.64,374.44-374.44S923.92,308.44,717.13,308.44,342.69,476.08,342.69,682.87A373.73,373.73,0,0,0,365,810.49a308.62,308.62,0,0,1,50.58,17.23Q412.1,820.47,409,813Z"/><path d="M1008.81,682.87c0-161.1-130.59-291.69-291.69-291.69S425.44,521.78,425.44,682.87,556,974.56,717.13,974.56,1008.81,844,1008.81,682.87Zm-113.72,178a250.79,250.79,0,0,1-119.79,67V794.48q3.87-2,7.57-4.29l115.88,66.9C897.55,858.35,896.34,859.61,895.1,860.85Zm29.3-35.14L814.69,762.36a125.74,125.74,0,0,0,19.45-33.08l109.6,63.27A250,250,0,0,1,924.4,825.7Zm44.41-142.83a251.07,251.07,0,0,1-10.44,72l-115.53-66.7c.07-1.75.12-3.5.12-5.26,0-2.4-.07-4.77-.21-7.14l115.13-66.47A251,251,0,0,1,968.81,682.87ZM923.45,538.67a250,250,0,0,1,19.54,33L833.49,634.9a125.81,125.81,0,0,0-19.89-32.82ZM775.31,437.94a250.79,250.79,0,0,1,119.79,67c.83.83,1.64,1.68,2.46,2.52L781.25,574.58q-2.92-1.73-5.94-3.31Zm-78.37-6q10-.79,20.18-.8,9.15,0,18.18.65V558.34a126.62,126.62,0,0,0-38.37.31ZM539.15,504.9a250.78,250.78,0,0,1,117.79-66.48V572.33q-4.47,2.44-8.71,5.23L533.17,511.12C535.13,509,537.12,506.94,539.15,504.9ZM508,542.77,617.5,606a125.59,125.59,0,0,0-18.57,33.58l-109.81-63.4A250.26,250.26,0,0,1,508,542.77ZM465.44,682.87a251.3,251.3,0,0,1,9.48-68.71l116.39,67.2c0,.5,0,1,0,1.51q0,1.6,0,3.19l-116,67A251.19,251.19,0,0,1,465.44,682.87Zm43.37,141.32a250.12,250.12,0,0,1-19.07-33.29l109.72-63.35a125.66,125.66,0,0,0,18.95,33.36ZM656.94,927.33a250.78,250.78,0,0,1-117.79-66.48q-2.53-2.53-5-5.12l115.42-66.64q3.59,2.28,7.33,4.33ZM632.87,682.87a84.25,84.25,0,1,1,84.25,84.25A84.35,84.35,0,0,1,632.87,682.87ZM696.94,807.1a126.62,126.62,0,0,0,38.37.31V933.91q-9,.64-18.18.65-10.16,0-20.18-.8Z"/></svg>
